# xmcd CD database file
#
# Track frame offsets:
#	150
#	15305
#	33100
#	52937
#	70467
#	92795
#	110050
#	125310
#	149672
#	173537
#	212712
#	240475
#
# Disc length: 3407 seconds
#
# Revision: 0
# Processed by: cddbd v1.5.1PL2 Copyright (c) Steve Scherf et al.
# Submitted via: CDex 1.51
#
DISCID=9e0d4d0c
DTITLE=Trudy Desmond - Tailor Made
DYEAR=1992
DGENRE=Jazz
TTITLE0=Day By Day
TTITLE1=Goody Goody
TTITLE2=I See Your Face Before Me
TTITLE3=Lucky To Be Me
TTITLE4=I'm Shadowing You
TTITLE5=By Myself
TTITLE6=Anyone Can Whistle
TTITLE7=I Thought About You
TTITLE8=Make Someone Happy
TTITLE9=I Guess I'll Hang My Tears Out To Dry
TTITLE10=People Will Say We're In Love
TTITLE11=I'll Never Be The Same
EXTD=YEAR: 1992
EXTT0=
EXTT1=
EXTT2=
EXTT3=
EXTT4=
EXTT5=
EXTT6=
EXTT7=
EXTT8=
EXTT9=
EXTT10=
EXTT11=
PLAYORDER=
